<mxfile host="app.diagrams.net" agent="Mozilla/5.0 (Windows NT 10.0; Win64; x64) AppleWebKit/537.36 (KHTML, like Gecko) Chrome/105.0.0.0 Safari/537.36 Edg/105.0.1343.42" version="24.7.7">
  <diagram id="R2lEEEUBdFMjLlhIrx00" name="Page-1">
    <mxGraphModel dx="1433" dy="788" grid="1" gridSize="10" guides="1" tooltips="1" connect="1" arrows="1" fold="1" page="1" pageScale="1" pageWidth="850" pageHeight="1100" math="0" shadow="0" extFonts="Permanent Marker^https://fonts.googleapis.com/css?family=Permanent+Marker">
      <root>
        <mxCell id="0" />
        <mxCell id="1" parent="0" />
        <mxCell id="2GnT_wYrHRMR0GGXpA7l-38" style="edgeStyle=orthogonalEdgeStyle;rounded=0;orthogonalLoop=1;jettySize=auto;html=1;" parent="1" source="2GnT_wYrHRMR0GGXpA7l-1" target="2GnT_wYrHRMR0GGXpA7l-2" edge="1">
          <mxGeometry relative="1" as="geometry" />
        </mxCell>
        <mxCell id="2GnT_wYrHRMR0GGXpA7l-1" value="usuario&amp;nbsp;" style="rounded=1;whiteSpace=wrap;html=1;" parent="1" vertex="1">
          <mxGeometry x="240" y="200" width="120" height="60" as="geometry" />
        </mxCell>
        <mxCell id="2GnT_wYrHRMR0GGXpA7l-2" value="jogo" style="rounded=1;whiteSpace=wrap;html=1;" parent="1" vertex="1">
          <mxGeometry x="560" y="200" width="120" height="60" as="geometry" />
        </mxCell>
        <mxCell id="2GnT_wYrHRMR0GGXpA7l-4" value="" style="ellipse;whiteSpace=wrap;html=1;aspect=fixed;fillColor=#000000;" parent="1" vertex="1">
          <mxGeometry x="245" y="127.5" width="20" height="20" as="geometry" />
        </mxCell>
        <mxCell id="2GnT_wYrHRMR0GGXpA7l-5" style="edgeStyle=orthogonalEdgeStyle;rounded=0;orthogonalLoop=1;jettySize=auto;html=1;entryX=0.125;entryY=-0.067;entryDx=0;entryDy=0;entryPerimeter=0;" parent="1" source="2GnT_wYrHRMR0GGXpA7l-4" target="2GnT_wYrHRMR0GGXpA7l-1" edge="1">
          <mxGeometry relative="1" as="geometry" />
        </mxCell>
        <mxCell id="2GnT_wYrHRMR0GGXpA7l-6" value="nome" style="text;html=1;align=center;verticalAlign=middle;whiteSpace=wrap;rounded=0;" parent="1" vertex="1">
          <mxGeometry x="225" y="90" width="60" height="30" as="geometry" />
        </mxCell>
        <mxCell id="2GnT_wYrHRMR0GGXpA7l-7" value="" style="ellipse;whiteSpace=wrap;html=1;aspect=fixed;" parent="1" vertex="1">
          <mxGeometry x="280" y="125" width="25" height="25" as="geometry" />
        </mxCell>
        <mxCell id="2GnT_wYrHRMR0GGXpA7l-8" style="edgeStyle=orthogonalEdgeStyle;rounded=0;orthogonalLoop=1;jettySize=auto;html=1;entryX=0.433;entryY=0.017;entryDx=0;entryDy=0;entryPerimeter=0;" parent="1" source="2GnT_wYrHRMR0GGXpA7l-7" target="2GnT_wYrHRMR0GGXpA7l-1" edge="1">
          <mxGeometry relative="1" as="geometry" />
        </mxCell>
        <mxCell id="2GnT_wYrHRMR0GGXpA7l-9" value="e-mail" style="text;html=1;align=center;verticalAlign=middle;whiteSpace=wrap;rounded=0;" parent="1" vertex="1">
          <mxGeometry x="262.5" y="95" width="60" height="30" as="geometry" />
        </mxCell>
        <mxCell id="2GnT_wYrHRMR0GGXpA7l-10" value="" style="ellipse;whiteSpace=wrap;html=1;aspect=fixed;fillColor=#000000;" parent="1" vertex="1">
          <mxGeometry x="325" y="127.5" width="20" height="20" as="geometry" />
        </mxCell>
        <mxCell id="2GnT_wYrHRMR0GGXpA7l-11" style="edgeStyle=orthogonalEdgeStyle;rounded=0;orthogonalLoop=1;jettySize=auto;html=1;entryX=0.792;entryY=-0.1;entryDx=0;entryDy=0;entryPerimeter=0;" parent="1" source="2GnT_wYrHRMR0GGXpA7l-10" target="2GnT_wYrHRMR0GGXpA7l-1" edge="1">
          <mxGeometry relative="1" as="geometry" />
        </mxCell>
        <mxCell id="2GnT_wYrHRMR0GGXpA7l-12" value="senha" style="text;html=1;align=center;verticalAlign=middle;whiteSpace=wrap;rounded=0;" parent="1" vertex="1">
          <mxGeometry x="305" y="90" width="60" height="30" as="geometry" />
        </mxCell>
        <mxCell id="2GnT_wYrHRMR0GGXpA7l-16" style="edgeStyle=orthogonalEdgeStyle;rounded=0;orthogonalLoop=1;jettySize=auto;html=1;" parent="1" source="2GnT_wYrHRMR0GGXpA7l-13" edge="1">
          <mxGeometry relative="1" as="geometry">
            <mxPoint x="230" y="202.5" as="targetPoint" />
          </mxGeometry>
        </mxCell>
        <mxCell id="2GnT_wYrHRMR0GGXpA7l-13" value="" style="ellipse;whiteSpace=wrap;html=1;aspect=fixed;" parent="1" vertex="1">
          <mxGeometry x="170" y="190" width="25" height="25" as="geometry" />
        </mxCell>
        <mxCell id="2GnT_wYrHRMR0GGXpA7l-17" value="documento," style="text;html=1;align=center;verticalAlign=middle;whiteSpace=wrap;rounded=0;" parent="1" vertex="1">
          <mxGeometry x="110" y="190" width="60" height="30" as="geometry" />
        </mxCell>
        <mxCell id="2GnT_wYrHRMR0GGXpA7l-19" style="edgeStyle=orthogonalEdgeStyle;rounded=0;orthogonalLoop=1;jettySize=auto;html=1;" parent="1" source="2GnT_wYrHRMR0GGXpA7l-18" edge="1">
          <mxGeometry relative="1" as="geometry">
            <mxPoint x="575" y="190" as="targetPoint" />
          </mxGeometry>
        </mxCell>
        <mxCell id="2GnT_wYrHRMR0GGXpA7l-18" value="" style="ellipse;whiteSpace=wrap;html=1;aspect=fixed;fillColor=#000000;" parent="1" vertex="1">
          <mxGeometry x="560" y="110" width="30" height="30" as="geometry" />
        </mxCell>
        <mxCell id="2GnT_wYrHRMR0GGXpA7l-20" value="nome" style="text;html=1;align=center;verticalAlign=middle;whiteSpace=wrap;rounded=0;" parent="1" vertex="1">
          <mxGeometry x="545" y="70" width="60" height="30" as="geometry" />
        </mxCell>
        <mxCell id="2GnT_wYrHRMR0GGXpA7l-24" style="edgeStyle=orthogonalEdgeStyle;rounded=0;orthogonalLoop=1;jettySize=auto;html=1;" parent="1" source="2GnT_wYrHRMR0GGXpA7l-21" edge="1">
          <mxGeometry relative="1" as="geometry">
            <mxPoint x="630" y="190" as="targetPoint" />
          </mxGeometry>
        </mxCell>
        <mxCell id="2GnT_wYrHRMR0GGXpA7l-21" value="" style="ellipse;whiteSpace=wrap;html=1;aspect=fixed;" parent="1" vertex="1">
          <mxGeometry x="612.5" y="110" width="35" height="35" as="geometry" />
        </mxCell>
        <mxCell id="2GnT_wYrHRMR0GGXpA7l-22" value="data de lamçamento" style="text;html=1;align=center;verticalAlign=middle;whiteSpace=wrap;rounded=0;" parent="1" vertex="1">
          <mxGeometry x="600" y="70" width="60" height="30" as="geometry" />
        </mxCell>
        <mxCell id="2GnT_wYrHRMR0GGXpA7l-26" style="edgeStyle=orthogonalEdgeStyle;rounded=0;orthogonalLoop=1;jettySize=auto;html=1;" parent="1" source="2GnT_wYrHRMR0GGXpA7l-25" edge="1">
          <mxGeometry relative="1" as="geometry">
            <mxPoint x="675" y="190" as="targetPoint" />
          </mxGeometry>
        </mxCell>
        <mxCell id="2GnT_wYrHRMR0GGXpA7l-25" value="" style="ellipse;whiteSpace=wrap;html=1;aspect=fixed;" parent="1" vertex="1">
          <mxGeometry x="660" y="110" width="30" height="30" as="geometry" />
        </mxCell>
        <mxCell id="2GnT_wYrHRMR0GGXpA7l-27" value="descriçao" style="text;html=1;align=center;verticalAlign=middle;whiteSpace=wrap;rounded=0;" parent="1" vertex="1">
          <mxGeometry x="660" y="70" width="60" height="30" as="geometry" />
        </mxCell>
        <mxCell id="2GnT_wYrHRMR0GGXpA7l-29" style="edgeStyle=orthogonalEdgeStyle;rounded=0;orthogonalLoop=1;jettySize=auto;html=1;" parent="1" source="2GnT_wYrHRMR0GGXpA7l-28" edge="1">
          <mxGeometry relative="1" as="geometry">
            <mxPoint x="690" y="210" as="targetPoint" />
          </mxGeometry>
        </mxCell>
        <mxCell id="2GnT_wYrHRMR0GGXpA7l-28" value="" style="ellipse;whiteSpace=wrap;html=1;aspect=fixed;" parent="1" vertex="1">
          <mxGeometry x="740" y="200" width="20" height="20" as="geometry" />
        </mxCell>
        <mxCell id="2GnT_wYrHRMR0GGXpA7l-30" value="link" style="text;html=1;align=center;verticalAlign=middle;whiteSpace=wrap;rounded=0;" parent="1" vertex="1">
          <mxGeometry x="750" y="195" width="60" height="30" as="geometry" />
        </mxCell>
        <mxCell id="2GnT_wYrHRMR0GGXpA7l-31" value="" style="ellipse;whiteSpace=wrap;html=1;aspect=fixed;" parent="1" vertex="1">
          <mxGeometry x="405" y="115" width="30" height="30" as="geometry" />
        </mxCell>
        <mxCell id="2GnT_wYrHRMR0GGXpA7l-33" value="" style="ellipse;whiteSpace=wrap;html=1;aspect=fixed;" parent="1" vertex="1">
          <mxGeometry x="460" y="115" width="30" height="30" as="geometry" />
        </mxCell>
        <mxCell id="2GnT_wYrHRMR0GGXpA7l-36" value="descrição" style="text;html=1;align=center;verticalAlign=middle;whiteSpace=wrap;rounded=0;" parent="1" vertex="1">
          <mxGeometry x="390" y="85" width="60" height="30" as="geometry" />
        </mxCell>
        <mxCell id="2GnT_wYrHRMR0GGXpA7l-37" value="nota" style="text;html=1;align=center;verticalAlign=middle;whiteSpace=wrap;rounded=0;" parent="1" vertex="1">
          <mxGeometry x="450" y="85" width="60" height="30" as="geometry" />
        </mxCell>
        <mxCell id="2GnT_wYrHRMR0GGXpA7l-43" value="n" style="text;html=1;align=center;verticalAlign=middle;whiteSpace=wrap;rounded=0;" parent="1" vertex="1">
          <mxGeometry x="345" y="230" width="60" height="30" as="geometry" />
        </mxCell>
        <mxCell id="2GnT_wYrHRMR0GGXpA7l-44" value="n" style="text;html=1;align=center;verticalAlign=middle;whiteSpace=wrap;rounded=0;" parent="1" vertex="1">
          <mxGeometry x="520" y="240" width="60" height="30" as="geometry" />
        </mxCell>
        <mxCell id="gsqbOl_kT5grFmj1t4pj-4" style="edgeStyle=orthogonalEdgeStyle;rounded=0;orthogonalLoop=1;jettySize=auto;html=1;" edge="1" parent="1" target="2GnT_wYrHRMR0GGXpA7l-2">
          <mxGeometry relative="1" as="geometry">
            <mxPoint x="620" y="330" as="sourcePoint" />
          </mxGeometry>
        </mxCell>
        <mxCell id="gsqbOl_kT5grFmj1t4pj-5" value="avaliação" style="rhombus;whiteSpace=wrap;html=1;" vertex="1" parent="1">
          <mxGeometry x="410" y="190" width="80" height="80" as="geometry" />
        </mxCell>
        <mxCell id="gsqbOl_kT5grFmj1t4pj-6" value="generos" style="rhombus;whiteSpace=wrap;html=1;" vertex="1" parent="1">
          <mxGeometry x="580" y="330" width="80" height="80" as="geometry" />
        </mxCell>
        <mxCell id="gsqbOl_kT5grFmj1t4pj-7" style="edgeStyle=orthogonalEdgeStyle;rounded=0;orthogonalLoop=1;jettySize=auto;html=1;entryX=0.125;entryY=0.388;entryDx=0;entryDy=0;entryPerimeter=0;" edge="1" parent="1" source="2GnT_wYrHRMR0GGXpA7l-31" target="gsqbOl_kT5grFmj1t4pj-5">
          <mxGeometry relative="1" as="geometry" />
        </mxCell>
        <mxCell id="gsqbOl_kT5grFmj1t4pj-8" style="edgeStyle=orthogonalEdgeStyle;rounded=0;orthogonalLoop=1;jettySize=auto;html=1;" edge="1" parent="1" source="2GnT_wYrHRMR0GGXpA7l-33">
          <mxGeometry relative="1" as="geometry">
            <mxPoint x="475" y="210" as="targetPoint" />
          </mxGeometry>
        </mxCell>
        <mxCell id="gsqbOl_kT5grFmj1t4pj-9" value="" style="ellipse;whiteSpace=wrap;html=1;aspect=fixed;" vertex="1" parent="1">
          <mxGeometry x="575" y="440" width="20" height="20" as="geometry" />
        </mxCell>
        <mxCell id="gsqbOl_kT5grFmj1t4pj-10" style="edgeStyle=orthogonalEdgeStyle;rounded=0;orthogonalLoop=1;jettySize=auto;html=1;entryX=0.063;entryY=0.625;entryDx=0;entryDy=0;entryPerimeter=0;" edge="1" parent="1" source="gsqbOl_kT5grFmj1t4pj-9" target="gsqbOl_kT5grFmj1t4pj-6">
          <mxGeometry relative="1" as="geometry" />
        </mxCell>
        <mxCell id="gsqbOl_kT5grFmj1t4pj-11" value="RPG" style="text;html=1;align=center;verticalAlign=middle;whiteSpace=wrap;rounded=0;" vertex="1" parent="1">
          <mxGeometry x="553" y="470" width="60" height="30" as="geometry" />
        </mxCell>
        <mxCell id="gsqbOl_kT5grFmj1t4pj-13" style="edgeStyle=orthogonalEdgeStyle;rounded=0;orthogonalLoop=1;jettySize=auto;html=1;entryX=0.5;entryY=1;entryDx=0;entryDy=0;" edge="1" parent="1" source="gsqbOl_kT5grFmj1t4pj-12" target="gsqbOl_kT5grFmj1t4pj-6">
          <mxGeometry relative="1" as="geometry" />
        </mxCell>
        <mxCell id="gsqbOl_kT5grFmj1t4pj-12" value="" style="ellipse;whiteSpace=wrap;html=1;aspect=fixed;" vertex="1" parent="1">
          <mxGeometry x="610" y="440" width="20" height="20" as="geometry" />
        </mxCell>
        <mxCell id="gsqbOl_kT5grFmj1t4pj-14" value="Ação" style="text;html=1;align=center;verticalAlign=middle;whiteSpace=wrap;rounded=0;" vertex="1" parent="1">
          <mxGeometry x="590" y="470" width="60" height="30" as="geometry" />
        </mxCell>
        <mxCell id="gsqbOl_kT5grFmj1t4pj-15" value="" style="ellipse;whiteSpace=wrap;html=1;aspect=fixed;" vertex="1" parent="1">
          <mxGeometry x="640" y="437.5" width="22.5" height="22.5" as="geometry" />
        </mxCell>
        <mxCell id="gsqbOl_kT5grFmj1t4pj-16" style="edgeStyle=orthogonalEdgeStyle;rounded=0;orthogonalLoop=1;jettySize=auto;html=1;" edge="1" parent="1" source="gsqbOl_kT5grFmj1t4pj-15">
          <mxGeometry relative="1" as="geometry">
            <mxPoint x="651" y="390" as="targetPoint" />
          </mxGeometry>
        </mxCell>
        <mxCell id="gsqbOl_kT5grFmj1t4pj-17" value="etc" style="text;html=1;align=center;verticalAlign=middle;whiteSpace=wrap;rounded=0;" vertex="1" parent="1">
          <mxGeometry x="630" y="470" width="60" height="30" as="geometry" />
        </mxCell>
        <mxCell id="gsqbOl_kT5grFmj1t4pj-19" style="edgeStyle=orthogonalEdgeStyle;rounded=0;orthogonalLoop=1;jettySize=auto;html=1;entryX=0;entryY=0.75;entryDx=0;entryDy=0;" edge="1" parent="1" source="gsqbOl_kT5grFmj1t4pj-18" target="2GnT_wYrHRMR0GGXpA7l-1">
          <mxGeometry relative="1" as="geometry" />
        </mxCell>
        <mxCell id="gsqbOl_kT5grFmj1t4pj-18" value="" style="ellipse;whiteSpace=wrap;html=1;aspect=fixed;" vertex="1" parent="1">
          <mxGeometry x="170" y="235" width="20" height="20" as="geometry" />
        </mxCell>
        <mxCell id="gsqbOl_kT5grFmj1t4pj-20" value="nome de usuario" style="text;html=1;align=center;verticalAlign=middle;whiteSpace=wrap;rounded=0;" vertex="1" parent="1">
          <mxGeometry x="100" y="235" width="60" height="30" as="geometry" />
        </mxCell>
      </root>
    </mxGraphModel>
  </diagram>
</mxfile>
